<?xml version="1.0" encoding="UTF-8" standalone="no"?>
<!DOCTYPE svg PUBLIC "-//W3C//DTD SVG 1.1//EN"
 "http://www.w3.org/Graphics/SVG/1.1/DTD/svg11.dtd">
<!-- Generated by graphviz version 2.44.0 (20200408.0750)
 -->
<!-- Title: dependency&#45;cruiser output Pages: 1 -->
<svg width="356pt" height="376pt"
 viewBox="0.00 0.00 355.52 375.81" xmlns="http://www.w3.org/2000/svg" xmlns:xlink="http://www.w3.org/1999/xlink">
<g id="graph0" class="graph" transform="scale(1 1) rotate(0) translate(4 371.81)">
<title>dependency&#45;cruiser output</title>
<polygon fill="white" stroke="transparent" points="-4,4 -4,-371.81 351.52,-371.81 351.52,4 -4,4"/>
<g id="clust1" class="cluster">
<title>cluster_api</title>
<path fill="#ffffff" stroke="black" stroke-width="2" d="M20,-148.81C20,-148.81 239.52,-148.81 239.52,-148.81 245.52,-148.81 251.52,-154.81 251.52,-160.81 251.52,-160.81 251.52,-347.81 251.52,-347.81 251.52,-353.81 245.52,-359.81 239.52,-359.81 239.52,-359.81 20,-359.81 20,-359.81 14,-359.81 8,-353.81 8,-347.81 8,-347.81 8,-160.81 8,-160.81 8,-154.81 14,-148.81 20,-148.81"/>
<text text-anchor="middle" x="129.76" y="-347.71" font-family="Helvetica,sans-Serif" font-weight="bold" font-size="9.00">api</text>
</g>
<g id="clust2" class="cluster">
<title>cluster_api/config</title>
<path fill="#ffffff" stroke="black" stroke-width="2" d="M90,-217.81C90,-217.81 228.52,-217.81 228.52,-217.81 234.52,-217.81 240.52,-223.81 240.52,-229.81 240.52,-229.81 240.52,-320.81 240.52,-320.81 240.52,-326.81 234.52,-332.81 228.52,-332.81 228.52,-332.81 90,-332.81 90,-332.81 84,-332.81 78,-326.81 78,-320.81 78,-320.81 78,-229.81 78,-229.81 78,-223.81 84,-217.81 90,-217.81"/>
<text text-anchor="middle" x="159.26" y="-320.71" font-family="Helvetica,sans-Serif" font-weight="bold" font-size="9.00">config</text>
</g>
<g id="clust3" class="cluster">
<title>cluster_api/routes</title>
<path fill="#ffffff" stroke="black" stroke-width="2" d="M101.26,-156.81C101.26,-156.81 231.52,-156.81 231.52,-156.81 237.52,-156.81 243.52,-162.81 243.52,-168.81 243.52,-168.81 243.52,-197.81 243.52,-197.81 243.52,-203.81 237.52,-209.81 231.52,-209.81 231.52,-209.81 101.26,-209.81 101.26,-209.81 95.26,-209.81 89.26,-203.81 89.26,-197.81 89.26,-197.81 89.26,-168.81 89.26,-168.81 89.26,-162.81 95.26,-156.81 101.26,-156.81"/>
<text text-anchor="middle" x="166.39" y="-197.71" font-family="Helvetica,sans-Serif" font-weight="bold" font-size="9.00">routes</text>
</g>
<g id="clust4" class="cluster">
<title>cluster_node_modules</title>
<path fill="#ffffff" stroke="black" stroke-width="2" d="M271.52,-17.81C271.52,-17.81 327.52,-17.81 327.52,-17.81 333.52,-17.81 339.52,-23.81 339.52,-29.81 339.52,-29.81 339.52,-151.81 339.52,-151.81 339.52,-157.81 333.52,-163.81 327.52,-163.81 327.52,-163.81 271.52,-163.81 271.52,-163.81 265.52,-163.81 259.52,-157.81 259.52,-151.81 259.52,-151.81 259.52,-29.81 259.52,-29.81 259.52,-23.81 265.52,-17.81 271.52,-17.81"/>
<text text-anchor="middle" x="299.52" y="-151.71" font-family="Helvetica,sans-Serif" font-weight="bold" font-size="9.00">node_modules</text>
</g>
<!-- api/config/default.js -->
<g id="node1" class="node">
<title>api/config/default.js</title>
<g id="a_node1"><a xlink:href="api/config/default.js" xlink:title="default.js">
<path fill="#ffffcc" stroke="black" d="M226.31,-290.11C226.31,-290.11 184.72,-290.11 184.72,-290.11 181.62,-290.11 178.52,-287.01 178.52,-283.91 178.52,-283.91 178.52,-277.71 178.52,-277.71 178.52,-274.61 181.62,-271.51 184.72,-271.51 184.72,-271.51 226.31,-271.51 226.31,-271.51 229.42,-271.51 232.52,-274.61 232.52,-277.71 232.52,-277.71 232.52,-283.91 232.52,-283.91 232.52,-287.01 229.42,-290.11 226.31,-290.11"/>
<text text-anchor="middle" x="205.52" y="-278.11" font-family="Helvetica,sans-Serif" font-size="9.00">default.js</text>
</a>
</g>
</g>
<!-- path -->
<g id="node2" class="node">
<title>path</title>
<path fill="#ffffcc" stroke="grey" d="M320.32,-331.11C320.32,-331.11 278.72,-331.11 278.72,-331.11 275.62,-331.11 272.52,-328.01 272.52,-324.91 272.52,-324.91 272.52,-318.71 272.52,-318.71 272.52,-315.61 275.62,-312.51 278.72,-312.51 278.72,-312.51 320.32,-312.51 320.32,-312.51 323.42,-312.51 326.52,-315.61 326.52,-318.71 326.52,-318.71 326.52,-324.91 326.52,-324.91 326.52,-328.01 323.42,-331.11 320.32,-331.11"/>
<text text-anchor="middle" x="299.52" y="-319.11" font-family="Helvetica,sans-Serif" font-size="9.00" fill="grey">path</text>
</g>
<!-- api/config/default.js&#45;&gt;path -->
<g id="edge1" class="edge">
<title>api/config/default.js&#45;&gt;path</title>
<path fill="none" stroke="#000000" stroke-dasharray="5,2" stroke-opacity="0.200000" d="M232.62,-287.13C238.92,-288.98 245.55,-291.22 251.52,-293.81 261,-297.93 270.92,-303.61 279.19,-308.77"/>
<polygon fill="#000000" fill-opacity="0.200000" stroke="#000000" stroke-opacity="0.200000" points="278.44,-310.79 284.63,-312.25 280.7,-307.25 278.44,-310.79"/>
</g>
<!-- api/config/development.js -->
<g id="node3" class="node">
<title>api/config/development.js</title>
<g id="a_node3"><a xlink:href="api/config/development.js" xlink:title="development.js">
<path fill="#ccffcc" stroke="black" d="M156.07,-306.11C156.07,-306.11 92.44,-306.11 92.44,-306.11 89.34,-306.11 86.24,-303.01 86.24,-299.91 86.24,-299.91 86.24,-293.71 86.24,-293.71 86.24,-290.61 89.34,-287.51 92.44,-287.51 92.44,-287.51 156.07,-287.51 156.07,-287.51 159.17,-287.51 162.27,-290.61 162.27,-293.71 162.27,-293.71 162.27,-299.91 162.27,-299.91 162.27,-303.01 159.17,-306.11 156.07,-306.11"/>
<text text-anchor="middle" x="124.26" y="-294.11" font-family="Helvetica,sans-Serif" font-size="9.00">development.js</text>
</a>
</g>
</g>
<!-- api/config/index.js -->
<g id="node4" class="node">
<title>api/config/index.js</title>
<g id="a_node4"><a xlink:href="api/config/index.js" xlink:title="index.js">
<path fill="#ffffcc" stroke="black" d="M145.06,-275.11C145.06,-275.11 103.46,-275.11 103.46,-275.11 100.36,-275.11 97.26,-272.01 97.26,-268.91 97.26,-268.91 97.26,-262.71 97.26,-262.71 97.26,-259.61 100.36,-256.51 103.46,-256.51 103.46,-256.51 145.06,-256.51 145.06,-256.51 148.16,-256.51 151.26,-259.61 151.26,-262.71 151.26,-262.71 151.26,-268.91 151.26,-268.91 151.26,-272.01 148.16,-275.11 145.06,-275.11"/>
<text text-anchor="middle" x="124.26" y="-263.11" font-family="Helvetica,sans-Serif" font-size="9.00">index.js</text>
</a>
</g>
</g>
<!-- api/config/index.js&#45;&gt;api/config/default.js -->
<g id="edge2" class="edge">
<title>api/config/index.js&#45;&gt;api/config/default.js</title>
<path fill="none" stroke="#000000" stroke-width="2" stroke-opacity="0.200000" d="M151.65,-270.81C158.27,-272.06 165.45,-273.42 172.31,-274.72"/>
<polygon fill="#000000" fill-opacity="0.200000" stroke="#000000" stroke-width="2" stroke-opacity="0.200000" points="172.22,-276.84 178.51,-275.89 173,-272.71 172.22,-276.84"/>
</g>
<!-- api/config/production.js -->
<g id="node5" class="node">
<title>api/config/production.js</title>
<g id="a_node5"><a xlink:href="api/config/production.js" xlink:title="production.js">
<path fill="#ccffcc" stroke="black" d="M151.57,-244.11C151.57,-244.11 96.95,-244.11 96.95,-244.11 93.85,-244.11 90.75,-241.01 90.75,-237.91 90.75,-237.91 90.75,-231.71 90.75,-231.71 90.75,-228.61 93.85,-225.51 96.95,-225.51 96.95,-225.51 151.57,-225.51 151.57,-225.51 154.67,-225.51 157.77,-228.61 157.77,-231.71 157.77,-231.71 157.77,-237.91 157.77,-237.91 157.77,-241.01 154.67,-244.11 151.57,-244.11"/>
<text text-anchor="middle" x="124.26" y="-232.11" font-family="Helvetica,sans-Serif" font-size="9.00">production.js</text>
</a>
</g>
</g>
<!-- api/index.js -->
<g id="node6" class="node">
<title>api/index.js</title>
<g id="a_node6"><a xlink:href="api/index.js" xlink:title="index.js">
<path fill="#ffffcc" stroke="black" d="M63.8,-175.11C63.8,-175.11 22.2,-175.11 22.2,-175.11 19.1,-175.11 16,-172.01 16,-168.91 16,-168.91 16,-162.71 16,-162.71 16,-159.61 19.1,-156.51 22.2,-156.51 22.2,-156.51 63.8,-156.51 63.8,-156.51 66.9,-156.51 70,-159.61 70,-162.71 70,-162.71 70,-168.91 70,-168.91 70,-172.01 66.9,-175.11 63.8,-175.11"/>
<text text-anchor="middle" x="43" y="-163.11" font-family="Helvetica,sans-Serif" font-size="9.00">index.js</text>
</a>
</g>
</g>
<!-- api/index.js&#45;&gt;path -->
<g id="edge10" class="edge">
<title>api/index.js&#45;&gt;path</title>
<path fill="none" stroke="#000000" stroke-dasharray="5,2" stroke-opacity="0.200000" d="M44.39,-175.46C45.94,-208.35 52.86,-315.2 78,-335.81 134.07,-381.78 227.56,-352.24 272.64,-333.63"/>
<polygon fill="#000000" fill-opacity="0.200000" stroke="#000000" stroke-opacity="0.200000" points="273.7,-335.46 278.42,-331.2 272.07,-331.59 273.7,-335.46"/>
</g>
<!-- api/index.js&#45;&gt;api/config/index.js -->
<g id="edge3" class="edge">
<title>api/index.js&#45;&gt;api/config/index.js</title>
<path fill="none" stroke="#000000" stroke-width="2" stroke-opacity="0.200000" d="M45.26,-175.29C48.04,-192.51 56.28,-229.04 78,-249.81 81.81,-253.45 86.5,-256.27 91.4,-258.45"/>
<polygon fill="#000000" fill-opacity="0.200000" stroke="#000000" stroke-width="2" stroke-opacity="0.200000" points="90.86,-260.5 97.21,-260.73 92.39,-256.59 90.86,-260.5"/>
</g>
<!-- api/routes/index.js -->
<g id="node7" class="node">
<title>api/routes/index.js</title>
<g id="a_node7"><a xlink:href="api/routes/index.js" xlink:title="index.js">
<path fill="#ffffcc" stroke="black" d="M145.06,-183.11C145.06,-183.11 103.46,-183.11 103.46,-183.11 100.36,-183.11 97.26,-180.01 97.26,-176.91 97.26,-176.91 97.26,-170.71 97.26,-170.71 97.26,-167.61 100.36,-164.51 103.46,-164.51 103.46,-164.51 145.06,-164.51 145.06,-164.51 148.16,-164.51 151.26,-167.61 151.26,-170.71 151.26,-170.71 151.26,-176.91 151.26,-176.91 151.26,-180.01 148.16,-183.11 145.06,-183.11"/>
<text text-anchor="middle" x="124.26" y="-171.11" font-family="Helvetica,sans-Serif" font-size="9.00">index.js</text>
</a>
</g>
</g>
<!-- api/index.js&#45;&gt;api/routes/index.js -->
<g id="edge4" class="edge">
<title>api/index.js&#45;&gt;api/routes/index.js</title>
<path fill="none" stroke="#000000" stroke-width="2" stroke-opacity="0.200000" d="M70.39,-168.48C77.01,-169.14 84.19,-169.87 91.06,-170.56"/>
<polygon fill="#000000" fill-opacity="0.200000" stroke="#000000" stroke-width="2" stroke-opacity="0.200000" points="91.07,-172.67 97.25,-171.19 91.49,-168.49 91.07,-172.67"/>
</g>
<!-- node_modules/body&#45;parser -->
<g id="node8" class="node">
<title>node_modules/body&#45;parser</title>
<g id="a_node8"><a xlink:href="node_modules/body-parser" xlink:title="body&#45;parser">
<polygon fill="#c40b0a" fill-opacity="0.101961" stroke="black" points="331.53,-75.11 269.58,-75.11 267.51,-73.05 267.51,-56.51 329.46,-56.51 331.53,-58.58 331.53,-75.11"/>
<polyline fill="none" stroke="black" points="329.46,-73.05 267.51,-73.05 "/>
<polyline fill="none" stroke="black" points="329.46,-73.05 329.46,-56.51 "/>
<polyline fill="none" stroke="black" points="329.46,-73.05 331.53,-75.11 "/>
<text text-anchor="middle" x="299.52" y="-63.11" font-family="Helvetica,sans-Serif" font-size="9.00" fill="#c40b0a">body&#45;parser</text>
</a>
</g>
</g>
<!-- api/index.js&#45;&gt;node_modules/body&#45;parser -->
<g id="edge5" class="edge">
<title>api/index.js&#45;&gt;node_modules/body&#45;parser</title>
<path fill="none" stroke="#000000" stroke-opacity="0.200000" d="M46.51,-156.22C50.63,-142.48 60.22,-117.47 78,-104.81 132.71,-65.86 214,-61.72 261.08,-63.14"/>
<polygon fill="#000000" fill-opacity="0.200000" stroke="#000000" stroke-opacity="0.200000" points="261.14,-65.25 267.21,-63.37 261.29,-61.05 261.14,-65.25"/>
</g>
<!-- node_modules/cors -->
<g id="node9" class="node">
<title>node_modules/cors</title>
<g id="a_node9"><a xlink:href="node_modules/cors" xlink:title="cors">
<polygon fill="#c40b0a" fill-opacity="0.101961" stroke="black" points="326.52,-44.11 274.59,-44.11 272.52,-42.05 272.52,-25.51 324.45,-25.51 326.52,-27.58 326.52,-44.11"/>
<polyline fill="none" stroke="black" points="324.45,-42.05 272.52,-42.05 "/>
<polyline fill="none" stroke="black" points="324.45,-42.05 324.45,-25.51 "/>
<polyline fill="none" stroke="black" points="324.45,-42.05 326.52,-44.11 "/>
<text text-anchor="middle" x="299.52" y="-32.11" font-family="Helvetica,sans-Serif" font-size="9.00" fill="#c40b0a">cors</text>
</a>
</g>
</g>
<!-- api/index.js&#45;&gt;node_modules/cors -->
<g id="edge6" class="edge">
<title>api/index.js&#45;&gt;node_modules/cors</title>
<path fill="none" stroke="#000000" stroke-opacity="0.200000" d="M44.81,-156.21C47.47,-127.18 57.03,-41.33 78,-24.81 134.19,19.44 225.65,-6.14 271.09,-23.26"/>
<polygon fill="#000000" fill-opacity="0.200000" stroke="#000000" stroke-opacity="0.200000" points="270.57,-25.31 276.93,-25.5 272.08,-21.39 270.57,-25.31"/>
</g>
<!-- node_modules/express -->
<g id="node10" class="node">
<title>node_modules/express</title>
<g id="a_node10"><a xlink:href="node_modules/express" xlink:title="express">
<polygon fill="#c40b0a" fill-opacity="0.101961" stroke="black" points="326.52,-137.11 274.59,-137.11 272.52,-135.05 272.52,-118.51 324.45,-118.51 326.52,-120.58 326.52,-137.11"/>
<polyline fill="none" stroke="black" points="324.45,-135.05 272.52,-135.05 "/>
<polyline fill="none" stroke="black" points="324.45,-135.05 324.45,-118.51 "/>
<polyline fill="none" stroke="black" points="324.45,-135.05 326.52,-137.11 "/>
<text text-anchor="middle" x="299.52" y="-125.11" font-family="Helvetica,sans-Serif" font-size="9.00" fill="#c40b0a">express</text>
</a>
</g>
</g>
<!-- api/index.js&#45;&gt;node_modules/express -->
<g id="edge7" class="edge">
<title>api/index.js&#45;&gt;node_modules/express</title>
<path fill="none" stroke="#000000" stroke-opacity="0.200000" d="M69.11,-156.43C72.08,-155.47 75.09,-154.57 78,-153.81 143.4,-136.7 222.69,-130.83 266.14,-128.83"/>
<polygon fill="#000000" fill-opacity="0.200000" stroke="#000000" stroke-opacity="0.200000" points="266.38,-130.92 272.29,-128.56 266.2,-126.73 266.38,-130.92"/>
</g>
<!-- fs -->
<g id="node11" class="node">
<title>fs</title>
<path fill="#ffffcc" stroke="grey" d="M145.06,-49.11C145.06,-49.11 103.46,-49.11 103.46,-49.11 100.36,-49.11 97.26,-46.01 97.26,-42.91 97.26,-42.91 97.26,-36.71 97.26,-36.71 97.26,-33.61 100.36,-30.51 103.46,-30.51 103.46,-30.51 145.06,-30.51 145.06,-30.51 148.16,-30.51 151.26,-33.61 151.26,-36.71 151.26,-36.71 151.26,-42.91 151.26,-42.91 151.26,-46.01 148.16,-49.11 145.06,-49.11"/>
<text text-anchor="middle" x="124.26" y="-37.11" font-family="Helvetica,sans-Serif" font-size="9.00" fill="grey">fs</text>
</g>
<!-- api/index.js&#45;&gt;fs -->
<g id="edge8" class="edge">
<title>api/index.js&#45;&gt;fs</title>
<path fill="none" stroke="#000000" stroke-dasharray="5,2" stroke-opacity="0.200000" d="M44.35,-156.4C45.6,-135.83 51.38,-86.47 78,-57.81 81.64,-53.89 86.24,-50.81 91.11,-48.39"/>
<polygon fill="#000000" fill-opacity="0.200000" stroke="#000000" stroke-opacity="0.200000" points="92.26,-50.18 96.91,-45.85 90.57,-46.34 92.26,-50.18"/>
</g>
<!-- node_modules/morgan -->
<g id="node12" class="node">
<title>node_modules/morgan</title>
<g id="a_node12"><a xlink:href="node_modules/morgan" xlink:title="morgan">
<polygon fill="#c40b0a" fill-opacity="0.101961" stroke="black" points="326.52,-106.11 274.59,-106.11 272.52,-104.05 272.52,-87.51 324.45,-87.51 326.52,-89.58 326.52,-106.11"/>
<polyline fill="none" stroke="black" points="324.45,-104.05 272.52,-104.05 "/>
<polyline fill="none" stroke="black" points="324.45,-104.05 324.45,-87.51 "/>
<polyline fill="none" stroke="black" points="324.45,-104.05 326.52,-106.11 "/>
<text text-anchor="middle" x="299.52" y="-94.11" font-family="Helvetica,sans-Serif" font-size="9.00" fill="#c40b0a">morgan</text>
</a>
</g>
</g>
<!-- api/index.js&#45;&gt;node_modules/morgan -->
<g id="edge9" class="edge">
<title>api/index.js&#45;&gt;node_modules/morgan</title>
<path fill="none" stroke="#000000" stroke-opacity="0.200000" d="M51.64,-156.4C57.94,-149.3 67.52,-139.94 78,-134.81 139.83,-104.57 221.7,-97.98 266.25,-96.8"/>
<polygon fill="#000000" fill-opacity="0.200000" stroke="#000000" stroke-opacity="0.200000" points="266.34,-98.9 272.29,-96.67 266.24,-94.7 266.34,-98.9"/>
</g>
<!-- api/routes/index.js&#45;&gt;node_modules/express -->
<g id="edge12" class="edge">
<title>api/routes/index.js&#45;&gt;node_modules/express</title>
<path fill="none" stroke="#000000" stroke-opacity="0.200000" d="M151.28,-165.81C159.06,-163.48 167.61,-160.99 175.51,-158.81 206.25,-150.36 241.55,-141.55 266.43,-135.5"/>
<polygon fill="#000000" fill-opacity="0.200000" stroke="#000000" stroke-opacity="0.200000" points="267.18,-137.48 272.52,-134.02 266.19,-133.39 267.18,-137.48"/>
</g>
<!-- api/routes/resource.js -->
<g id="node13" class="node">
<title>api/routes/resource.js</title>
<g id="a_node13"><a xlink:href="api/routes/resource.js" xlink:title="resource.js">
<path fill="#ffffcc" stroke="black" d="M229.32,-183.11C229.32,-183.11 181.71,-183.11 181.71,-183.11 178.61,-183.11 175.51,-180.01 175.51,-176.91 175.51,-176.91 175.51,-170.71 175.51,-170.71 175.51,-167.61 178.61,-164.51 181.71,-164.51 181.71,-164.51 229.32,-164.51 229.32,-164.51 232.42,-164.51 235.52,-167.61 235.52,-170.71 235.52,-170.71 235.52,-176.91 235.52,-176.91 235.52,-180.01 232.42,-183.11 229.32,-183.11"/>
<text text-anchor="middle" x="205.52" y="-171.11" font-family="Helvetica,sans-Serif" font-size="9.00">resource.js</text>
</a>
</g>
</g>
<!-- api/routes/index.js&#45;&gt;api/routes/resource.js -->
<g id="edge11" class="edge">
<title>api/routes/index.js&#45;&gt;api/routes/resource.js</title>
<path fill="none" stroke="#000000" stroke-width="2" stroke-opacity="0.200000" d="M151.65,-173.81C157.27,-173.81 163.29,-173.81 169.19,-173.81"/>
<polygon fill="#000000" fill-opacity="0.200000" stroke="#000000" stroke-width="2" stroke-opacity="0.200000" points="169.51,-175.91 175.51,-173.81 169.51,-171.71 169.51,-175.91"/>
</g>
<!-- api/routes/resource.js&#45;&gt;node_modules/express -->
<g id="edge13" class="edge">
<title>api/routes/resource.js&#45;&gt;node_modules/express</title>
<path fill="none" stroke="#000000" stroke-opacity="0.200000" d="M232.05,-164.4C238.49,-161.81 245.33,-158.87 251.52,-155.81 260.65,-151.3 270.38,-145.65 278.6,-140.62"/>
<polygon fill="#000000" fill-opacity="0.200000" stroke="#000000" stroke-opacity="0.200000" points="280.04,-142.2 284.03,-137.25 277.83,-138.63 280.04,-142.2"/>
</g>
</g>
</svg>
